/* XPM */
static char *_3af99f8679c4a9ef850fa1be1e86da0[] = {
/* columns rows colors chars-per-pixel */
"32 32 168 2 ",
"   c #00335F",
".  c #0C3B5F",
"X  c #103E5F",
"o  c #0C3E64",
"O  c #053962",
"+  c #103F60",
"@  c #17425E",
"#  c #2C4D5F",
"$  c #33535F",
"%  c #0E4066",
"&  c #134365",
"*  c #194563",
"=  c #154569",
"-  c #184769",
";  c #1C4A6B",
":  c #1E4965",
">  c #224C67",
",  c #224E6D",
"<  c #24516F",
"1  c #2B546B",
"2  c #315465",
"3  c #3D5A62",
"4  c #30576A",
"5  c #365A6C",
"6  c #3A5D6C",
"7  c #385765",
"8  c #2A5571",
"9  c #2F5873",
"0  c #275370",
"q  c #345C74",
"w  c #3A6177",
"e  c #3C6379",
"r  c #60695B",
"t  c #6F745E",
"y  c #415D62",
"u  c #48656B",
"i  c #556964",
"p  c #516A6A",
"a  c #596F6A",
"s  c #516662",
"d  c #4C6A72",
"f  c #41677B",
"g  c #44697B",
"h  c #4B6E7E",
"j  c #466670",
"k  c #516D73",
"l  c #4E707F",
"z  c #557175",
"x  c #5C7676",
"c  c #677465",
"v  c #6B7664",
"b  c #6F7866",
"n  c #64766C",
"m  c #68786C",
"M  c #697768",
"N  c #737964",
"B  c #717762",
"V  c #617670",
"C  c #647C78",
"Z  c #667D78",
"A  c #6C827B",
"S  c #71857B",
"D  c #7A8B7D",
"F  c #76897D",
"G  c #7B8167",
"H  c #A8995F",
"J  c #8D8863",
"K  c #82886D",
"L  c #8D906F",
"P  c #82927F",
"I  c #8B9274",
"U  c #909576",
"Y  c #AFA168",
"T  c #B9A665",
"R  c #B7A569",
"E  c #B9A668",
"W  c #BEA868",
"Q  c #ACA474",
"!  c #B3A771",
"~  c #B6AF7B",
"^  c #BBB27C",
"/  c #EEBC4F",
"(  c #F0BC4D",
")  c #EEBE53",
"_  c #C4AD68",
"`  c #D7B766",
"'  c #D9B762",
"]  c #DFBF6E",
"[  c #C1B57A",
"{  c #EEC15A",
"}  c #F2C35C",
"|  c #F2C054",
" . c #DDC070",
".. c #DBC57D",
"X. c #E2C069",
"o. c #EDC463",
"O. c #F1C664",
"+. c #F2C866",
"@. c #F4CC6B",
"#. c #EFCB70",
"$. c #F4CF72",
"%. c #F4D175",
"&. c #F8D676",
"*. c #F5D57D",
"=. c #F5D87F",
"-. c #FBDA7E",
";. c #F8D67E",
":. c #F7D06D",
">. c #4F7180",
",. c #537482",
"<. c #5B7985",
"1. c #587783",
"2. c #617F87",
"3. c #627F88",
"4. c #658289",
"5. c #6B868B",
"6. c #678382",
"7. c #718983",
"8. c #758B86",
"9. c #7B9187",
"0. c #758E90",
"q. c #7A9292",
"w. c #849380",
"e. c #8D9A82",
"r. c #919D85",
"t. c #879C97",
"y. c #9AA386",
"u. c #96A38A",
"i. c #90A39C",
"p. c #A6AC89",
"a. c #AAAE8A",
"s. c #A5A983",
"d. c #ADB18A",
"f. c #B4B68C",
"g. c #BCBB8C",
"h. c #BABC91",
"j. c #C6BF8A",
"k. c #CCC48B",
"l. c #C8C18A",
"z. c #DCC982",
"x. c #DACD8F",
"c. c #C4C291",
"v. c #C9C592",
"b. c #CEC993",
"n. c #D3CD94",
"m. c #DAD296",
"M. c #E3CE85",
"N. c #E7D287",
"B. c #E2D18C",
"V. c #E8D68F",
"C. c #F6D984",
"Z. c #FADC84",
"A. c #F6DD8D",
"S. c #F8DD8A",
"D. c #E3D592",
"F. c #E4DA99",
"G. c #E8DB97",
"H. c #F5DF92",
"J. c #FDE087",
"K. c #FAE28D",
"L. c #EDE09D",
"P. c #F5E094",
"I. c #FAE393",
"U. c #F3E49E",
"Y. c #FDEB9E",
"T. c #FBE799",
"R. c #FDEBA1",
"E. c None",
/* pixels */
"E.E.E.E.E.E.E.E.E.E.E.E.-.J.K.K.I.K.J.-.E.E.E.E.E.E.E.E.E.E.E.E.",
"E.E.E.E.E.E.E.E.E.&.Z.D.c.u.9.6.6.9.u.c.V.Z.&.E.E.E.E.E.E.E.E.E.",
"E.E.E.E.E.E.E.E.=.k.8.9 = % % ; 0 % = & 5 8.k.=.E.E.E.E.E.E.E.E.",
"E.E.E.E.E.E.:.z.D ; * e 9 4.q.t.2.8 5.1.w & - F z.:.E.E.E.E.E.E.",
"E.E.E.E.E.@.[ 6 % h 0.4.l l e q , = >.5.q.<.f % 6 [ @.E.E.E.E.E.",
"E.E.E.E.} ! > ; 4.t.4.* ; 4 d V V d 4 * 9 g 0.4.& > ! O.E.E.E.E.",
"E.E.E.} W : ; 1.4.q * V ~ M.A.K.K.H.M.~ V - w 5.; % > W } E.E.E.",
"E.E.E.' 7 < 8 g < 6 ~ K.Y.R.R.R.R.R.R.Y.P.~ 6 - q 1.; 3 ' E.E.E.",
"E.E.O.N % 1.<.& u z.T.Y.R.R.R.R.R.R.R.R.R.T.z.j < 4.1.% N O.E.E.",
"E.@._ * f 4.< 6 z.Y.R.Y.R.R.R.R.R.R.R.R.R.R.Y.z.6 q q.l * _ @.E.",
"E.@.N . ,.1.* ^ Y.Y.Y.U.T.U.U.L.R.U.U.U.U.U.U.T.^ * 1.q.- B :.E.",
"E.] # o , o V I.Y.Y.D C P a.A A F.Z C w.d.C 7.L.H.n < q.w # ] E.",
"-.R . o < * ~ Y.R.g.5 5 D p.1 6 8.1 5 Z p.5 z U.Y.^ ; 4.1.+ R -.",
"-.J & 5.>.2 N.Y.F.P A 6 D f.j j 4 x 6 Z p.6 z U.R.B.2 ,.q.% J -.",
"Z.t ; i.e p C.U.P P z 5 D f.y.j e.e.6 Z p.5 z U.R.P.p e 5.; t -.",
"C.r ; q.q n ;.Q s.Y.P k D f.c.y.x.y.k 9.p.k k y.y.x.m , ,.; r Z.",
"Z.r % l ; c $...z.V.m.b.n.m.G.F.U.D.n.F.m.n.m.b.m.P.n o e = r Z.",
"Z.v . a % i #.#.L U p.p.d.p.d.v.c.p.g.p.y.p.y.b.R.P.p @ a o B Z.",
"J.J X c * 2 X.o.G K L Q g.a.e.n.b.r.v.w.P m.r.r.R.V.2 * c o J Z.",
"-.R . w h * R { H Y ! [ k.k.n.f.D.c.v.v.f.m.G.v.R.~ & >.9 . R -.",
"E.] # q h , c { | } @.%.C.K.T.Y.R.R.R.Y.Y.R.R.R.T.n < 4.w #  .E.",
"E.$.v = 5.>.* T | | } #.%.C.S.T.R.T.Y.R.R.Y.Y.R.^ @ h 5.& b $.E.",
"E.@._ * w t.8 3 ' ( | { @.%.C.S.T.T.R.Y.Y.R.R.B.y ; 4.e & _ @.E.",
"E.E.O.b & 4.6.; s ' / ) { +.$.;.S.I.Y.R.Y.R.B.s ; ,.f & b +.E.E.",
"E.E.E.` 2 = l h O y T } ( } O.$.;.Z.I.Y.Y.[ y = 1.l 0 2 ` E.E.E.",
"E.E.E.} E : ; f w ; + v T X.@.$.*.C.N.^ M + o 3.1.9 : E } E.E.E.",
"E.E.E.E.} Q > - >.0.f ; * $ i c v i 2 * o y u q 8 : Q } E.E.E.E.",
"E.E.E.E.E.O.^ 5 = w q.>.g * & * < < f g e y y   5 ^ O.E.E.E.E.E.",
"E.E.E.E.E.E.@.z.A * = < - c a g 1.0.<.f <   & S z.@.E.E.E.E.E.E.",
"E.E.E.E.E.E.E.E.C.j.7.1 o + O o & ; = & 1 7.j.*.E.E.E.E.E.E.E.E.",
"E.E.E.E.E.E.E.E.E.%.C.D.h.u.7.6.6.7.r.h.D.C.%.E.E.E.E.E.E.E.E.E.",
"E.E.E.E.E.E.E.E.E.E.E.E.;.S.A.H.H.A.Z.C.E.E.E.E.E.E.E.E.E.E.E.E."
};
