/* XPM */
static char *_eeb6727744447829f8b6e09e945dc5b[] = {
/* columns rows colors chars-per-pixel */
"64 64 191 2 ",
"   c #00345F",
".  c #0D3A5C",
"X  c #07385E",
"o  c #153E5A",
"O  c #002F5D",
"+  c #013560",
"@  c #053961",
"#  c #0B3C63",
"$  c #17425F",
"%  c #22465B",
"&  c #2B4A5A",
"*  c #334E57",
"=  c #34525E",
"-  c #0F4065",
";  c #134265",
":  c #1A4664",
">  c #164568",
",  c #184769",
"<  c #1C4A6A",
"1  c #1D4966",
"2  c #234D67",
"3  c #2B4E62",
"4  c #234E6B",
"5  c #25506E",
"6  c #2A536C",
"7  c #2C5266",
"8  c #3B5E6C",
"9  c #355767",
"0  c #2B5571",
"q  c #2E5873",
"w  c #345B74",
"e  c #395F76",
"r  c #3C6176",
"t  c #3E6478",
"y  c #3E616E",
"u  c #4A5754",
"i  c #57635C",
"p  c #6B715A",
"a  c #717155",
"s  c #415C65",
"d  c #44636E",
"f  c #4A6366",
"g  c #586C69",
"h  c #5D726E",
"j  c #466670",
"k  c #4C6A72",
"l  c #41667A",
"z  c #46697C",
"x  c #4A6C7D",
"c  c #4A6770",
"v  c #526E73",
"b  c #4E707F",
"n  c #557174",
"m  c #5B7475",
"M  c #5B777A",
"N  c #617977",
"B  c #647C79",
"V  c #6A7C75",
"C  c #757C63",
"Z  c #817F64",
"A  c #6D827A",
"S  c #76877B",
"D  c #75816F",
"F  c #8C865B",
"G  c #AA8B4D",
"H  c #A48E5A",
"J  c #B59856",
"K  c #8A8967",
"L  c #988D65",
"P  c #95946E",
"I  c #878C73",
"U  c #82917F",
"Y  c #9B9C78",
"T  c #A69964",
"R  c #A39F73",
"E  c #9EA17E",
"W  c #BDAA6A",
"Q  c #B4A468",
"!  c #B7AA74",
"~  c #BBB27D",
"^  c #A7A579",
"/  c #C9A75B",
"(  c #D0B05B",
")  c #ECB646",
"_  c #EDBA4D",
"`  c #EEBE54",
"'  c #E9B859",
"]  c #C9B26A",
"[  c #D8B666",
"{  c #CAB978",
"}  c #D6BE76",
"|  c #CAAE68",
" . c #E5BD68",
".. c #EFC15B",
"X. c #EFC057",
"o. c #F1C35C",
"O. c #F2C459",
"+. c #D8C279",
"@. c #EEC464",
"#. c #ECC46C",
"$. c #EDC76D",
"%. c #F1C662",
"&. c #F3C965",
"*. c #F3CC6B",
"=. c #F6D06E",
"-. c #EDCC74",
";. c #E7C877",
":. c #F3CF71",
">. c #F1CF79",
",. c #F5D274",
"<. c #F5D47B",
"1. c #F8D67B",
"2. c #F7D97D",
"3. c #F9D97D",
"4. c #F8D273",
"5. c #4F7080",
"6. c #547482",
"7. c #587783",
"8. c #5C7B85",
"9. c #607E87",
"0. c #627F88",
"q. c #658189",
"w. c #6A868B",
"e. c #6C8689",
"r. c #738C8E",
"t. c #758E90",
"y. c #7C9393",
"u. c #769091",
"i. c #829182",
"p. c #8D9982",
"a. c #879787",
"s. c #939C83",
"d. c #989E82",
"f. c #849A96",
"g. c #899E99",
"h. c #849A96",
"j. c #9BA385",
"k. c #97A28B",
"l. c #8EA19A",
"z. c #92A59C",
"x. c #97A99E",
"c. c #A2A988",
"v. c #A6AB87",
"b. c #B2AD81",
"n. c #ADB18A",
"m. c #B3B58C",
"M. c #BAB687",
"N. c #B6BC99",
"B. c #A7B39A",
"V. c #9DAEA1",
"C. c #A4B3A4",
"Z. c #ACB9A7",
"A. c #ABB7A1",
"S. c #C3BF90",
"D. c #C1BF8F",
"F. c #B9C3A7",
"G. c #D9C784",
"H. c #C3C190",
"J. c #CDC892",
"K. c #CBC792",
"L. c #D4CD95",
"P. c #DBD296",
"I. c #DBD299",
"U. c #EBD487",
"Y. c #F7DA84",
"T. c #F9DD85",
"R. c #F6DC8A",
"E. c #F9DE8A",
"W. c #F3D681",
"Q. c #E2D696",
"!. c #E2D799",
"~. c #E3D99A",
"^. c #EADE9A",
"/. c #EDDB94",
"(. c #E9D287",
"). c #FAE18C",
"_. c #EEE19C",
"`. c #FBE593",
"'. c #FDE896",
"]. c #F3E49C",
"[. c #FBE79A",
"{. c #FDEB9E",
"}. c #F6E193",
"|. c #D6D6A6",
" X c #C4CAA7",
".X c #E2DCA3",
"XX c #E9E3A8",
"oX c #FDEBA1",
"OX c #F6E9A3",
"+X c #FFF1A1",
"@X c None",
/* pixels */
"@X@X@X@X@X@X@X@X@X@X@X@X@X@X@X@X@X@X@X@X@X@X@X@X@X@X@X$.$.:.<.<.,.,.-.-.&.@X@X@X@X@X@X@X@X@X@X@X@X@X@X@X@X@X@X@X@X@X@X@X@X@X@X@X",
"@X@X@X@X@X@X@X@X@X@X@X@X@X@X@X@X@X@X@X@X@X@X@X*.<.T.T.`.[.[.'.+X{.{.'.'.`.).T.<.:.@X@X@X@X@X@X@X@X@X@X@X@X@X@X@X@X@X@X@X@X@X@X@X",
"@X@X@X@X@X@X@X@X@X@X@X@X@X@X@X@X@X@X@X@X*.<.T.`.'.+XoXXX.X|. XF.F. X|..XXX+X+X'.`.T.<.*.@X@X@X@X@X@X@X@X@X@X@X@X@X@X@X@X@X@X@X@X",
"@X@X@X@X@X@X@X@X@X@X@X@X@X@X@X@X@X@X*.1.).'.[..XN.f.7.r 4 ; ; # # ; ; 2 e M f.N..X[.`.E.2.*.@X@X@X@X@X@X@X@X@X@X@X@X@X@X@X@X@X@X",
"@X@X@X@X@X@X@X@X@X@X@X@X@X@X@X@X*.<.T.[.~.N.q.0 -           + +   O   + +   + # 0 q.N.^.'.T.<.*.@X@X@X@X@X@X@X@X@X@X@X@X@X@X@X@X",
"@X@X@X@X@X@X@X@X@X@X@X@X@X@X@.:.3.`.~.k.r #   O + + @ > 5 ; l e t w.w   < > @     O @ r k.~.).T.,.%.@X@X@X@X@X@X@X@X@X@X@X@X@X@X",
"@X@X@X@X@X@X@X@X@X@X@X@X@X%.,.T./.k.w   O   + , ; 5 7.7.V.q Z.g.t x.0 @ y.g.r e # #     + q k./.T.,.%.@X@X@X@X@X@X@X@X@X@X@X@X@X",
"@X@X@X@X@X@X@X@X@X@X@X@X&.4.T.H.k @     @ b r.q.9.; y.w.F.0.x.Z.e y.@ < u.r.t.r.t.y.4 #     @ k H.T.,.&.@X@X@X@X@X@X@X@X@X@X@X@X",
"@X@X@X@X@X@X@X@X@X@X@X&.4.W.s.<   @   l 7.y.z.8.h.< y.g.u.u.7.u.q 8.  w l.f.y.y.y.7.7.q.t ; O   4 s.U.:.&.@X@X@X@X@X@X@X@X@X@X@X",
"@X@X@X@X@X@X@X@X@X@Xo.=.(.V @ + O ; h.y.C.q.g.# t.t.t 5 # # @ @ @ @   - r q 5.r.g.f.h.e V.0.> @ + @ V (.=.&.` @X@X@X@X@X@X@X@X@X",
"@X@X@X@X@X@X@X@X@Xo.=.G.v + + - 0.7.l.C.C.r.7.@ # # + O + + @ # - @ @ + O O   , 7.8.q.x w.t C.q O + X v G.&.o.@X@X@X@X@X@X@X@X@X",
"@X@X@X@X@X@X@X@XO.%.+.c + + @ e h.y.e.l.q.0 @   + # q 7.i.j.! M.M.! E y.M q # O O # ; 0.0.Z.V.q 6.+ + O v +.%.O.@X@X@X@X@X@X@X@X",
"@X@X@X@X@X@X@X` X.;.v O O 0 y.q y.w.y.0 @ + + 5 e.~ } $.=.,.<.1.<.<.,.:.-.+.b.e.5 + + @ w t.y.h.t   + + + k ;.O.X.@X@X@X@X@X@X@X",
"@X@X@X@X@X@X` O.#.V     O l y.5 7.r.w   + 5 i.} $.1.E.[.OXoXoXoXoXoXoXoX'.E.1.:.+.i.4 + O < y.w.  + # , + + h #.X.` @X@X@X@X@X@X",
"@X@X@X@X@Xo.O.&.K @ + > , @ q.l.w.  O @ M G.,.T.[.oXoXoXoXoXoXoXoXoXoXoXoXoXoX[.Y.:.{ B # O 4 6.@ 0 g.g., + @ P %.O...@X@X@X@X@X",
"@X@X@X@X@XO.%.W : + @ h.x # @ e , O < d.;.<.[.oXoXoXoXoXoXoXoXoXoXoXoXoXoXoXoXoXOX{.T.-.d.< + + ; g.r z w # + : W %.O.@X@X@X@X@X",
"@X@X@X@Xo.%.#.f + + 0 y.6.w.q O O 0 b.:.).oX{.oXoXoXoXoXoXoXoXoXoXoXoXoX{.oXoXoXoXoXoX}.4.b.6 O - y.8.5.h.6 +   f  .&.o.@X@X@X@X",
"@X@X@X@X%.&.K + + , h.t q.h.< O 0 ~ ,.`.oX{.{.{.oXoXoXoXoXoXoXoXoXoXoXoXoX{.oXoXoXoXoXoX`.4.M.6 O @ 7.y.7.r.;   + P &.%.@X@X@X@X",
"@X@X@X@.*.[ = + - 7.z.z.q # + , ~ ,.[.oX{.oX{.oX{.oXoX{.oXoXoXoXoXoXoXoXoXoXoXoXoXoXoXoXoX[.,.b.<   e g.y.w.u.> O 3 [ &.&.@X@X@X",
"@X@X@X=.*.K + + e w.< e e + # d.,.[.{.{.{.{.{.{.{.{.{.OXoXoXoXoXOXoXoXoXoXoXoXoXoXoXoXoXoXoX[.,.Y #   0 y.V.z.t O + K =.*.@X@X@X",
"@X@X&.=.[ = + @ q. XZ.8.@ O N >.).oX{.{.{.{.oX{.{.{.{.{.oXoXoXoX{.oXoXoXoXoXoXoXoXoXoXoXoXoXoX`.-.B   # t l.w.b # + =  .=.*.@X@X",
"@X@X:.4.H @ + # @ z h.5   6 { T.oX{.oX{.{.{.{.{.{.[.{.{.{.oXoXoX{.oX[.OXoXoXOXoX[.OXoXoXoXoXOXoXE.{ 4 O q y.x.z.5.+ @ H 4.*.@X@X",
"@X@X,.#.i + + w 0 + # @   I 1.[.oX{.{.{.J.N i.p.N n.P.S p.p.m S ^.oXc.n i.s.B d.!.S V k.A S !.oX{.<.I + @ l g.l.l +   i $.,.@X@X",
"@X:.<.[ % + + # e r @ + 4 +.E.oX{.{.{.+Xd.+ j c - m.+Xn 6 n $ 8 _.[.0.O 8 v # k.oXn 2 n 1 n {.oXoX).+.4 O e t.0.y.0 O % [ 1.:.@X",
"@X,.3.H X + + + + 0 4 + A 1.[.oXoX{.+XJ.7 + j v ; H.+Xm # m d # m.I.2 + y v ; c.+XB 4 m 2 B oXoXoX{.<.V + , z.z.t.z + X H 1.<.@X",
"@X2.4.a + @ ; @ ; 0 + @ ! E.oXoX{.{._.v n : j k ; D.+XN + 8 m : k V : ; 8 n ; c.oXN 2 n 2 B oXoXoXoXE.! # @ 8.t 6.7.+ + a ,.1.@X",
"@XT.$.u + # q.y.h.7.O 9 ;.}.{.oX{.{.U v H.1 j k $ D.+XN j : m d # # S 9 8 n ; c.oXB 2 M 2 B oXoXoXoX[.;.6 O w g.Z.r.# + u #.T.@X",
"<.T.[ * O 5 y.r.t.4 + h <.`.[.{.+Xm.8 J.P.1 j k $ D.+XN p.y 9 m 1 6 J.6 8 v - c.oXN 2 n 2 B oXoXoXoXoX<.h + , x.x.w.; + * [ ).<.",
"<.)./ o X 2 l.Z.y.; + I 1.}.`.{.~.8 9 S A ; j v ; H.+XN v.v.; m d p.^.6 8 n ; c.oXN 4 h 4 B oXoXoXoXoXT.I + # 0.r.q.<   o / T.1.",
"T.).J . O b Z.C.r.@ @ ^ 1.E.`.}.A v c.j.U ; j k ; H.{.N v.^.8 9 S ^.^.9 8 v - c.oXM 2 M 2 B oXoXoXoXoXE.R + ; l.6.r.q.  . J ).2.",
"T.`.G .   , z w.0.@ @ ! 1.R.E.j.8 P.{.+XP.> j k - D.{.N c.+Xj.; n.oX^.6 8 v - c.oXB 4 m 4 n Q.!.Q.N.H.`.! @ @ b 5 q q   . G `.T.",
"T.`.G X   l f.C.9.+ # W 1.<.! 9 S `.'.{.H.7 m m 2 n.].v U {._.N P.oXQ.8 k B 2 p.].n 8 V 8 2 8 8 d 9 n.[.] #   q 6.h.z   . G `.T.",
").`.G X O l g.C.8.+ # ] <.>.+.} G.}.`.'./.P.~.Q.P.~.].P.P.{.oX^.{.{.].P.Q.~.P.Q.].P.I.~.I.L.L.P.L.P._.'.] # + t w.x.l   X G `.).",
"E.`.G X @   + ; 4 + @ ! 4.:.<.2.<.(.(.}.'.].^.].^.^.^.^.{.{._./._.[.{.].^.].+X]._.].].^.oX+X]._.oXoXoX`.! # + + + # < + X G `.E.",
"T.`.J o +   : 3 + + + R :.*.=.,.P n ^ A L.^ n D.n.S B m.K.m.s.H.s.J.N.s.D.U J.~.k n.H.j k.oXK.v.OXoXoX`.R   + + 2 , O + o J '.T.",
"2.`./ o   7 Y ~ s + + K :.&.*.=.K f +.9 M.^ 8 ~.{.S N {.J.8 J.+X!.M.d D.+Xc.k Q.8 m.[.A 7 c.!.N.{.oXoX`.K + O s ! E 7 + o / ).2.",
"<.).[ & + $ T { 6 + + g -.%.%.=.K s P g G.^ 8 ^.{.U N {.n.6 ^.{.+XH.7 Q.+XD.7 K.8 m.[.m.j.6 p.D.oXoXoXR.g O + 3 | ! ; + & [ ).<.",
"@XT.#.u + @ = = o + + = ;.%.O.&.K f -.g D ^ 8 R.'.S N +XH.6 J.{.oXJ.9 J.+Xm.8 P.8 m.OXm.{.s.< c.oXoX[.(.= @ + $ = = . + u #.T.@X",
"@XT.,.a + + + 4 5.e + . W *.X.o.F s W g P R 8 (.).D N [.[.S M n.n.P.j.U L.U v.~.8 v.^.j._.{.p.v.oXoX[.W . @ z 4 @ @     a 1.T.@X",
"@X1.2.H X + t g.0.g.> + C :.` ..( / ] ] $.+.{ (.R.G.J.].{.[.J.K.^.oX{.P.J.Q.{.].J.Q.^.L.].{.[.^.{.oXE.C + # l.z.8.x O X H 2.<.@X",
"@X:.2.( % + 5.t.; r @ + 3 +.o._ X.O.%.&.:.=.,.2.Y.E.).`.[.{.oXoX{.{.{.{.oX{.{.{.+XoX{.+XoX{.{.oXoXoX} & + # w 9.l.t O % ( 2.:.@X",
"@X@X<.$.i + @ > e e.q.@ + F :._ _ X.O.o.&.:.:.,.<.Y.R.E.`.[.{.oX{.{.{.oX{.{.oX{.{.{.{.{.{.{.{.{.[.`.K + @ w.g.5.4 @   i -.1.@X@X",
"@X@X,.4.L @ + q g.7.l.<   & } @.) _ X.O.%.&.*.:.,.2.Y.Y.E.}.[.[.oX{.{.{.oX{.{.oXoX{.{.{.oX{.oX{.oX} & + > g.V.y.t + @ L 4.:.@X@X",
"@X@X$.4.[ 3 O 0 g.y.x e # + p -._ ) _ X.....&.*.:.,.<.Y.Y.E.`.`.{.{.{.oX{.{.{.{.{.{.{.oX{.{.{.oXR.p + @ z e 9.w.- + 3 [ 4.$.@X@X",
"@X@X@X*.=.Z + + ; w h.C.<   . T :.) ) ` ` X...%.*.*.,.<.Y.Y.E.}.[.[.{.{.{.{.{.{.{.{.oX{.{.{.oX'.T X + 5 7.h.z # @ + Z *.=.@X@X@X",
"@X@X@X&.=.[ 3 + # r.C.z.g.; + % W :.) ) _ ` ....%.*.:.,.<.2.Y.E.).`.[.{.{.{.oX{.{.oX{.{.{.oX{.W % + @ t h.q.g.- O 2 [ =.&.@X@X@X",
"@X@X@X@X@.*.K + + q l.V.M w - + & ] =.) ) ) ` X.o.o.*.*.,.>.W.Y.E.}.`.[.{.{.{.{.{.{.{.oXoX{.] & + ; t.e > 0.z + + K =.&.@X@X@X@X",
"@X@X@X@X@.*. .s + @ z 0 0.x.8.X + * W ,._ ) _ _ X...@.*.*.4.<.2.Y.R.).[.[.{.oX{.{.oX{.oX{.W * + + 5 l.q 6.- + + 8  .&.@.@X@X@X@X",
"@X@X@X@X@Xo.&.! ; + O 6.h.g.9.5 @ + % T >.@.) ) ` X.O.o.*.*.:.,.<.Y.R.).`.[.{.{.{.oXoXR.H % + @ 9.t t g.g., + o ! @.%.@X@X@X@X@X",
"@X@X@X@X@X' o.&.I @ + > # ; 6.t.+ + + . p } ,..._ _ ` ..o.&.*.:.,.2.Y.R.).`.[.{.oXoX+.p . + # ; g.g.5 < < + @ I &.o.' @X@X@X@X@X",
"@X@X@X@X@X@X' O. .h + + + t h.; @ 5.# + O & F +.<.:.o.....o.%.*.:.,.<.W.R.`.{.'.+.F &   + - y.7.< l.g.5 O + h #.o.X.@X@X@X@X@X@X",
"@X@X@X@X@X@X@X` o.} c O + r r.@ 7.w., w +   X * a W ;.W.2.<.<.<.Y.R.).).}.(.W a & @ + + + - g.l.9.4 e + + d } o.' @X@X@X@X@X@X@X",
"@X@X@X@X@X@X@X@XX.&.G.s + + ; q y.4 g.x.# , O + + o * p F T W ] | W T F p * o     +   7 7   , u.g.- O + d } %.X.@X@X@X@X@X@X@X@X",
"@X@X@X@X@X@X@X@X' ..@.G.d + + > 4 y.F.7.z l.l , ; +       . . o o . X         - 5 @ 9 ! ~ 9   q 4 + + c G.*.o.' @X@X@X@X@X@X@X@X",
"@X@X@X@X@X@X@X@X@X' @.=.G.m @ + @ 5 t.q g.C.r.e V.r   +   + + +     X O > r 4 y.f.+ % Q Q , + + + + M G.*.o.' @X@X@X@X@X@X@X@X@X",
"@X@X@X@X@X@X@X@X@X@X' &.4.U.i.; O + - 5 r.Z.q q y.- @ d = X + 9.8.5 f.; 9.x.q 6 y.+ # & 3 # + + ; i.U.4.#.' @X@X@X@X@X@X@X@X@X@X",
"@X@X@X@X@X@X@X@X@X@X@X@X&.,.Y.m.j + + @ - z + q.t   f } M.9 @ z.q.w F.5.5 l.q.@ y.< + + + O @ y m.Y.,.&.@X@X@X@X@X@X@X@X@X@X@X@X",
"@X@X@X@X@X@X@X@X@X@X@X@X@X@.1.T.Q.a.5 + O + + 0 - + % T P # @ z.l l Z.g.5 g.y.@ < # + + + 5 a.Q.T.,.@.@X@X@X@X@X@X@X@X@X@X@X@X@X",
"@X@X@X@X@X@X@X@X@X@X@X@X@X@X' ,.2.).I.i.q X O + + @ . $ % @ X M # 0 r e # 4 ; + O O @ q a.I.).2.:. .@X@X@X@X@X@X@X@X@X@X@X@X@X@X",
"@X@X@X@X@X@X@X@X@X@X@X@X@X@X@X@X#.2.E.[.!.V.M < @ O         + + + +     + O + @ < M x.!.[.).<.#.@X@X@X@X@X@X@X@X@X@X@X@X@X@X@X@X",
"@X@X@X@X@X@X@X@X@X@X@X@X@X@X@X@X@X@X$.2.).'.].|.B.r.z 0 > # @ @ @ @ # , 0 5.r.V.|.[.'.E.1.$.@X@X@X@X@X@X@X@X@X@X@X@X@X@X@X@X@X@X",
"@X@X@X@X@X@X@X@X@X@X@X@X@X@X@X@X@X@X@X@X#.>.E.'.{.+XOX.X|. XF.A.A.F. X|.XXOXoX'.`.E.<.#.@X@X@X@X@X@X@X@X@X@X@X@X@X@X@X@X@X@X@X@X",
"@X@X@X@X@X@X@X@X@X@X@X@X@X@X@X@X@X@X@X@X@X@X@X$.>.W.).'.[.{.{.{.{.+X[.'.`.}.Y.>.$.@X@X@X@X@X@X@X@X@X@X@X@X@X@X@X@X@X@X@X@X@X@X@X",
"@X@X@X@X@X@X@X@X@X@X@X@X@X@X@X@X@X@X@X@X@X@X@X@X@X@X' #.#.$.-.>.>.-.;.#. .' @X@X@X@X@X@X@X@X@X@X@X@X@X@X@X@X@X@X@X@X@X@X@X@X@X@X"
};
