/* XPM */
static char *_39a5a64469946238b34790911f7ce4e[] = {
/* columns rows colors chars-per-pixel */
"16 16 192 2 ",
"   c #2C5267",
".  c #2D5368",
"X  c #2F556A",
"o  c #2D556C",
"O  c #385967",
"+  c #3F5C64",
"@  c #31566A",
"#  c #31576A",
"$  c #34596E",
"%  c #3A5B68",
"&  c #3C5E6B",
"*  c #395C6C",
"=  c #3E5F6C",
"-  c #2B5672",
";  c #2C5672",
":  c #315B75",
">  c #325C76",
",  c #355E76",
"<  c #3C5F70",
"1  c #3F616F",
"2  c #3A6177",
"3  c #3C6176",
"4  c #3D6377",
"5  c #3A6279",
"6  c #3D6378",
"7  c #3E647A",
"8  c #3E657B",
"9  c #4D6667",
"0  c #4A666B",
"q  c #4D676B",
"w  c #4F686A",
"e  c #4F686C",
"r  c #546C6D",
"t  c #556E6F",
"y  c #5A6D68",
"u  c #5B6F69",
"i  c #5C6E68",
"p  c #5D7069",
"a  c #5A716E",
"s  c #5A716F",
"d  c #416371",
"f  c #426370",
"g  c #406373",
"h  c #446672",
"j  c #466876",
"k  c #4B6A71",
"l  c #4C6A71",
"z  c #4E6C72",
"x  c #4F6C72",
"c  c #4A6974",
"v  c #486876",
"b  c #486976",
"n  c #496A77",
"m  c #4B6B76",
"M  c #406579",
"N  c #40667A",
"B  c #41667B",
"V  c #43687A",
"C  c #43687B",
"Z  c #44697C",
"A  c #466A7C",
"S  c #476B7D",
"D  c #4B6B78",
"F  c #4E6D79",
"G  c #4A6C7C",
"H  c #486C7E",
"J  c #4B6E7F",
"K  c #4C6E7F",
"L  c #577174",
"P  c #5D7371",
"I  c #5F7570",
"U  c #597476",
"Y  c #527079",
"T  c #547279",
"R  c #557279",
"E  c #5D7778",
"W  c #617876",
"Q  c #667D79",
"!  c #6D837A",
"~  c #72867C",
"^  c #798B7E",
"/  c #AD9A5A",
"(  c #868766",
")  c #898760",
"_  c #898862",
"`  c #888865",
"'  c #98956C",
"]  c #99956D",
"[  c #98966E",
"{  c #99966E",
"}  c #879077",
"|  c #82927F",
" . c #899279",
".. c #8B957B",
"X. c #8C9479",
"o. c #8C9579",
"O. c #8C957B",
"+. c #8D967A",
"@. c #8D967B",
"#. c #8E967B",
"$. c #A59A66",
"%. c #ADA16C",
"&. c #AEA26C",
"*. c #ADA26E",
"=. c #ADA36E",
"-. c #AEA979",
";. c #BBB47F",
":. c #CFB15F",
">. c #D6B45F",
",. c #EDBF58",
"<. c #C5AC63",
"1. c #C5AD67",
"2. c #C8B068",
"3. c #D4B261",
"4. c #D4B262",
"5. c #D6B460",
"6. c #D3B86B",
"7. c #D2B86E",
"8. c #D3B96E",
"9. c #D5B96C",
"0. c #D6BD74",
"q. c #D8BE71",
"w. c #F1C155",
"e. c #D9C175",
"r. c #DAC275",
"t. c #E8C56C",
"y. c #EFC96A",
"u. c #F4CB68",
"i. c #EBD07E",
"p. c #F7D77F",
"a. c #517381",
"s. c #949F84",
"d. c #949F85",
"f. c #99A285",
"g. c #9AA284",
"h. c #9BA386",
"j. c #9EA585",
"k. c #9FA785",
"l. c #AFAF85",
"z. c #A2A989",
"x. c #B2B082",
"c. c #B3B183",
"v. c #B3B385",
"b. c #B6B485",
"n. c #B1B288",
"m. c #B5B589",
"M. c #B3B58C",
"N. c #B3B58D",
"B. c #B4B68D",
"V. c #B6B78D",
"C. c #B6B88C",
"Z. c #BFBB89",
"A. c #B8B98D",
"S. c #B8B98F",
"D. c #BABA8E",
"F. c #BABA8F",
"G. c #BCBC8E",
"H. c #C2C08F",
"J. c #D3C482",
"K. c #D4C483",
"L. c #D5C584",
"P. c #D8C884",
"I. c #D7CA8A",
"U. c #D1C88E",
"Y. c #D4C98D",
"T. c #D7CB8C",
"R. c #DACE8F",
"E. c #C2C090",
"W. c #C2C091",
"Q. c #C5C391",
"!. c #C7C491",
"~. c #CCC792",
"^. c #CDC892",
"/. c #D3CB92",
"(. c #D4CB90",
"). c #DCD093",
"_. c #F4D781",
"`. c #EDDC95",
"'. c #EEDD95",
"]. c #F7E295",
"[. c #FBE494",
"{. c #F7E59A",
"}. c #F9E89E",
"|. c #FAE99E",
" X c #FEEB9E",
".X c #FFEC9D",
"XX c #FFEC9E",
"oX c #FFEC9F",
"OX c #FFED9F",
"+X c #FFEEA2",
"@X c #FFEFA3",
"#X c None",
/* pixels */
"#X#X#X#X#XP.v.j.j.v.P.#X#X#X#X#X",
"#X#X#Xe.X.Y 6 G , C T X.e.#X#X#X",
"#X#X2.I a.S b E z F H C s 2.#X#X",
"#X5.i : D ..T.`.`.T...j - p 5.#X",
"#X` M g x..X+X+X+X+X Xv.b S ` #X",
"9.+ ; @.{.V.E.M.W.V.D./.#.a.r 6.",
"&.$ < T.E.k | k z U Q z.R.Y b &.",
"' G W J.n.! h.h.d.~ ^ d.(.L 3 ' ",
"' # w q.;.M.D.^.~.C.M.D.).0 . ' ",
"&.O & 1.$.-.Z.H.!.V.G.Q.U.= O &.",
"8.e M ) ,.y._.].}.}.}. XX.S e 7.",
"#X( S k / w.u.p.[..X+Xb.g 5 ( #X",
"#X4.u : * ) :.t.i.I.@.1 8 u 4.#X",
"#X#X1.s 8 M % 9 r f   X P 1.#X#X",
"#X#X#X0. .m X X 5 8 h } 0.#X#X#X",
"#X#X#X#X#XJ.l.g.g.l.L.#X#X#X#X#X"
};
